%TF.GenerationSoftware,KiCad,Pcbnew,8.0.6*%
%TF.CreationDate,2024-11-20T11:58:57-06:00*%
%TF.ProjectId,attiny85 programmer,61747469-6e79-4383-9520-70726f677261,rev?*%
%TF.SameCoordinates,Original*%
%TF.FileFunction,Soldermask,Top*%
%TF.FilePolarity,Negative*%
%FSLAX46Y46*%
G04 Gerber Fmt 4.6, Leading zero omitted, Abs format (unit mm)*
G04 Created by KiCad (PCBNEW 8.0.6) date 2024-11-20 11:58:57*
%MOMM*%
%LPD*%
G01*
G04 APERTURE LIST*
%ADD10R,1.600000X1.600000*%
%ADD11O,1.600000X1.600000*%
%ADD12R,1.200000X1.200000*%
%ADD13C,1.200000*%
%ADD14C,1.600000*%
%ADD15R,1.800000X1.800000*%
%ADD16C,1.800000*%
%ADD17R,1.700000X1.700000*%
%ADD18O,1.700000X1.700000*%
%ADD19R,2.250000X1.500000*%
G04 APERTURE END LIST*
D10*
%TO.C,REF\u002A\u002A*%
X121920000Y-86360000D03*
D11*
X121920000Y-88900000D03*
X121920000Y-91440000D03*
X121920000Y-93980000D03*
X129540000Y-93980000D03*
X129540000Y-91440000D03*
X129540000Y-88900000D03*
X129540000Y-86360000D03*
%TD*%
D12*
%TO.C,REF\u002A\u002A*%
X124460000Y-114840000D03*
D13*
X124460000Y-116840000D03*
%TD*%
D10*
%TO.C,REF\u002A\u002A*%
X167640000Y-93980000D03*
D11*
X167640000Y-96520000D03*
X167640000Y-99060000D03*
X167640000Y-101600000D03*
X175260000Y-101600000D03*
X175260000Y-99060000D03*
X175260000Y-96520000D03*
X175260000Y-93980000D03*
%TD*%
D14*
%TO.C,REF\u002A\u002A*%
X157480000Y-119380000D03*
D11*
X157480000Y-111760000D03*
%TD*%
D15*
%TO.C,REF\u002A\u002A*%
X182880000Y-87630000D03*
D16*
X182880000Y-90170000D03*
%TD*%
D14*
%TO.C,REF\u002A\u002A*%
X177800000Y-93980000D03*
D11*
X177800000Y-101600000D03*
%TD*%
D10*
%TO.C,REF\u002A\u002A*%
X152400000Y-119380000D03*
D11*
X152400000Y-116840000D03*
X152400000Y-114300000D03*
X152400000Y-111760000D03*
X152400000Y-109220000D03*
X152400000Y-106680000D03*
X152400000Y-104140000D03*
X152400000Y-101600000D03*
X152400000Y-99060000D03*
X152400000Y-96520000D03*
X152400000Y-93980000D03*
X152400000Y-91440000D03*
X152400000Y-88900000D03*
X152400000Y-86360000D03*
X152400000Y-83820000D03*
X137160000Y-83820000D03*
X137160000Y-86360000D03*
X137160000Y-88900000D03*
X137160000Y-91440000D03*
X137160000Y-93980000D03*
X137160000Y-96520000D03*
X137160000Y-99060000D03*
X137160000Y-101600000D03*
X137160000Y-104140000D03*
X137160000Y-106680000D03*
X137160000Y-109220000D03*
X137160000Y-111760000D03*
X137160000Y-114300000D03*
X137160000Y-116840000D03*
X137160000Y-119380000D03*
%TD*%
D17*
%TO.C,REF\u002A\u002A*%
X177800000Y-83820000D03*
D18*
X175260000Y-83820000D03*
X172720000Y-83820000D03*
X170180000Y-83820000D03*
X167640000Y-83820000D03*
X165100000Y-83820000D03*
%TD*%
D19*
%TO.C,REF\u002A\u002A*%
X121460000Y-109220000D03*
X124460000Y-109220000D03*
X127460000Y-109220000D03*
%TD*%
D14*
%TO.C,REF\u002A\u002A*%
X167640000Y-88900000D03*
D11*
X160020000Y-88900000D03*
%TD*%
D15*
%TO.C,REF\u002A\u002A*%
X157480000Y-106680000D03*
D16*
X157480000Y-104140000D03*
%TD*%
D14*
%TO.C,REF\u002A\u002A*%
X160020000Y-93980000D03*
X162520000Y-93980000D03*
%TD*%
M02*
