M48
; DRILL file {KiCad 8.0.6} date 2024-11-17T16:56:21-0600
; FORMAT={-:-/ absolute / inch / decimal}
; #@! TF.CreationDate,2024-11-17T16:56:21-06:00
; #@! TF.GenerationSoftware,Kicad,Pcbnew,8.0.6
; #@! TF.FileFunction,Plated,1,2,PTH
FMAT,2
INCH
; #@! TA.AperFunction,Plated,PTH,ComponentDrill
T1C0.0197
; #@! TA.AperFunction,Plated,PTH,ComponentDrill
T2C0.0236
; #@! TA.AperFunction,Plated,PTH,ComponentDrill
T3C0.0315
; #@! TA.AperFunction,Plated,PTH,ComponentDrill
T4C0.0354
; #@! TA.AperFunction,Plated,PTH,ComponentDrill
T5C0.0394
%
G90
G05
T2
X4.9Y-4.5213
X4.9Y-4.6
T3
X4.8Y-3.4
X4.8Y-3.5
X4.8Y-3.6
X4.8Y-3.7
X5.1Y-3.4
X5.1Y-3.5
X5.1Y-3.6
X5.1Y-3.7
X6.2Y-4.4
X6.2Y-4.7
X6.3Y-3.5
X6.3Y-3.7
X6.3984Y-3.7
X6.6Y-3.5
X6.6Y-3.7
X6.6Y-3.8
X6.6Y-3.9
X6.6Y-4.0
X6.9Y-3.7
X6.9Y-3.8
X6.9Y-3.9
X6.9Y-4.0
X7.0Y-3.7
X7.0Y-4.0
T4
X6.2Y-4.1
X6.2Y-4.2
X7.0Y-3.45
X7.0Y-3.55
T5
X5.4Y-3.3
X5.4Y-3.4
X5.4Y-3.5
X5.4Y-3.6
X5.4Y-3.7
X5.4Y-3.8
X5.4Y-3.9
X5.4Y-4.0
X5.4Y-4.1
X5.4Y-4.2
X5.4Y-4.3
X5.4Y-4.4
X5.4Y-4.5
X5.4Y-4.6
X5.4Y-4.7
X6.0Y-3.3
X6.0Y-3.4
X6.0Y-3.5
X6.0Y-3.6
X6.0Y-3.7
X6.0Y-3.8
X6.0Y-3.9
X6.0Y-4.0
X6.0Y-4.1
X6.0Y-4.2
X6.0Y-4.3
X6.0Y-4.4
X6.0Y-4.5
X6.0Y-4.6
X6.0Y-4.7
X6.5Y-3.3
X6.6Y-3.3
X6.7Y-3.3
X6.8Y-3.3
X6.9Y-3.3
X7.0Y-3.3
T1
G00X4.7524Y-4.3
M15
G01X4.8114Y-4.3
M16
G05
G00X4.8705Y-4.3
M15
G01X4.9295Y-4.3
M16
G05
G00X4.9886Y-4.3
M15
G01X5.0476Y-4.3
M16
G05
M30
