%TF.GenerationSoftware,KiCad,Pcbnew,8.0.6*%
%TF.CreationDate,2024-11-20T11:58:56-06:00*%
%TF.ProjectId,attiny85 programmer,61747469-6e79-4383-9520-70726f677261,rev?*%
%TF.SameCoordinates,Original*%
%TF.FileFunction,Drillmap*%
%TF.FilePolarity,Positive*%
%FSLAX45Y45*%
G04 Gerber Fmt 4.5, Leading zero omitted, Abs format (unit mm)*
G04 Created by KiCad (PCBNEW 8.0.6) date 2024-11-20 11:58:56*
%MOMM*%
%LPD*%
G01*
G04 APERTURE LIST*
%ADD10C,0.050000*%
%ADD11C,0.200000*%
G04 APERTURE END LIST*
D10*
X11684000Y-7874000D02*
X18669000Y-7874000D01*
X18669000Y-12446000D01*
X11684000Y-12446000D01*
X11684000Y-7874000D01*
D11*
X11942277Y-12759984D02*
X11942277Y-12559984D01*
X11942277Y-12559984D02*
X11989896Y-12559984D01*
X11989896Y-12559984D02*
X12018467Y-12569508D01*
X12018467Y-12569508D02*
X12037515Y-12588555D01*
X12037515Y-12588555D02*
X12047039Y-12607603D01*
X12047039Y-12607603D02*
X12056562Y-12645698D01*
X12056562Y-12645698D02*
X12056562Y-12674269D01*
X12056562Y-12674269D02*
X12047039Y-12712365D01*
X12047039Y-12712365D02*
X12037515Y-12731412D01*
X12037515Y-12731412D02*
X12018467Y-12750460D01*
X12018467Y-12750460D02*
X11989896Y-12759984D01*
X11989896Y-12759984D02*
X11942277Y-12759984D01*
X12142277Y-12759984D02*
X12142277Y-12626650D01*
X12142277Y-12664746D02*
X12151801Y-12645698D01*
X12151801Y-12645698D02*
X12161324Y-12636174D01*
X12161324Y-12636174D02*
X12180372Y-12626650D01*
X12180372Y-12626650D02*
X12199420Y-12626650D01*
X12266086Y-12759984D02*
X12266086Y-12626650D01*
X12266086Y-12559984D02*
X12256562Y-12569508D01*
X12256562Y-12569508D02*
X12266086Y-12579031D01*
X12266086Y-12579031D02*
X12275610Y-12569508D01*
X12275610Y-12569508D02*
X12266086Y-12559984D01*
X12266086Y-12559984D02*
X12266086Y-12579031D01*
X12389896Y-12759984D02*
X12370848Y-12750460D01*
X12370848Y-12750460D02*
X12361324Y-12731412D01*
X12361324Y-12731412D02*
X12361324Y-12559984D01*
X12494658Y-12759984D02*
X12475610Y-12750460D01*
X12475610Y-12750460D02*
X12466086Y-12731412D01*
X12466086Y-12731412D02*
X12466086Y-12559984D01*
X12723229Y-12759984D02*
X12723229Y-12559984D01*
X12723229Y-12559984D02*
X12789896Y-12702841D01*
X12789896Y-12702841D02*
X12856562Y-12559984D01*
X12856562Y-12559984D02*
X12856562Y-12759984D01*
X13037515Y-12759984D02*
X13037515Y-12655222D01*
X13037515Y-12655222D02*
X13027991Y-12636174D01*
X13027991Y-12636174D02*
X13008943Y-12626650D01*
X13008943Y-12626650D02*
X12970848Y-12626650D01*
X12970848Y-12626650D02*
X12951801Y-12636174D01*
X13037515Y-12750460D02*
X13018467Y-12759984D01*
X13018467Y-12759984D02*
X12970848Y-12759984D01*
X12970848Y-12759984D02*
X12951801Y-12750460D01*
X12951801Y-12750460D02*
X12942277Y-12731412D01*
X12942277Y-12731412D02*
X12942277Y-12712365D01*
X12942277Y-12712365D02*
X12951801Y-12693317D01*
X12951801Y-12693317D02*
X12970848Y-12683793D01*
X12970848Y-12683793D02*
X13018467Y-12683793D01*
X13018467Y-12683793D02*
X13037515Y-12674269D01*
X13132753Y-12626650D02*
X13132753Y-12826650D01*
X13132753Y-12636174D02*
X13151801Y-12626650D01*
X13151801Y-12626650D02*
X13189896Y-12626650D01*
X13189896Y-12626650D02*
X13208943Y-12636174D01*
X13208943Y-12636174D02*
X13218467Y-12645698D01*
X13218467Y-12645698D02*
X13227991Y-12664746D01*
X13227991Y-12664746D02*
X13227991Y-12721888D01*
X13227991Y-12721888D02*
X13218467Y-12740936D01*
X13218467Y-12740936D02*
X13208943Y-12750460D01*
X13208943Y-12750460D02*
X13189896Y-12759984D01*
X13189896Y-12759984D02*
X13151801Y-12759984D01*
X13151801Y-12759984D02*
X13132753Y-12750460D01*
X13313705Y-12740936D02*
X13323229Y-12750460D01*
X13323229Y-12750460D02*
X13313705Y-12759984D01*
X13313705Y-12759984D02*
X13304182Y-12750460D01*
X13304182Y-12750460D02*
X13313705Y-12740936D01*
X13313705Y-12740936D02*
X13313705Y-12759984D01*
X13313705Y-12636174D02*
X13323229Y-12645698D01*
X13323229Y-12645698D02*
X13313705Y-12655222D01*
X13313705Y-12655222D02*
X13304182Y-12645698D01*
X13304182Y-12645698D02*
X13313705Y-12636174D01*
X13313705Y-12636174D02*
X13313705Y-12655222D01*
M02*
